<svg width="973" height="334" viewBox="0 0 973 334" fill="none" xmlns="http://www.w3.org/2000/svg">
<path fill-rule="evenodd" clip-rule="evenodd" d="M165.949 316.928C172.25 323.227 167.788 334 158.879 334H136.401C133.749 334 131.206 332.947 129.331 331.072L2.92972 204.699C1.05387 202.824 0 200.28 0 197.627V175.154C0 166.246 10.7703 161.784 17.0703 168.082L165.949 316.928ZM0 276.663C0 267.754 10.7703 263.292 17.0703 269.591L64.4182 316.928C70.7189 323.227 66.2575 334 57.3479 334H34.8698C32.218 334 29.6748 332.947 27.7995 331.072L2.92972 306.208C1.05388 304.332 0 301.788 0 299.136V276.663Z" fill="black"/>
<path fill-rule="evenodd" clip-rule="evenodd" d="M0 276.663C0 267.754 10.7703 263.292 17.0703 269.591L64.4182 316.928C70.7189 323.227 66.2575 334 57.3479 334H34.8698C32.218 334 29.6748 332.947 27.7995 331.072L2.92972 306.208C1.05388 304.332 0 301.788 0 299.136V276.663Z" fill="black"/>
<path fill-rule="evenodd" clip-rule="evenodd" d="M0 175.154C0 166.246 10.7703 161.784 17.0703 168.082L165.949 316.928C172.25 323.227 167.788 334 158.879 334H136.401C133.749 334 131.206 332.947 129.331 331.072L2.92972 204.699C1.05387 202.824 0 200.28 0 197.627V175.154Z" fill="black"/>
<path d="M29.6313 129.886C25.725 125.981 25.725 119.648 29.6313 115.743L40.8703 104.506C44.7754 100.602 51.0989 100.595 55.0039 104.499C74.2674 123.759 128.777 178.256 166.248 215.719C198.489 247.952 243.344 292.797 267.508 316.956C273.809 323.255 269.319 334 260.41 334H237.932C235.28 334 232.737 332.947 230.861 331.072L29.6313 129.886Z" fill="black"/>
<path d="M80.3968 79.1323C76.4905 75.2269 76.4905 68.894 80.3968 64.9886L91.6358 53.7521C95.5409 49.8479 101.871 49.8479 105.776 53.7521L297.166 245.099C299.042 246.975 300.096 249.518 300.096 252.171V274.644C300.096 283.553 289.325 288.014 283.025 281.716L80.3968 79.1323Z" fill="black"/>
<path d="M283.025 180.208C289.325 186.506 300.096 182.044 300.096 173.136V150.804C300.096 148.152 299.042 145.608 297.166 143.732L156.471 3.0687C152.566 -0.835492 146.236 -0.835487 142.33 3.06871L131.162 14.2344C127.256 18.1399 127.256 24.4727 131.162 28.3781L283.025 180.208Z" fill="black"/>
<path d="M818.02 60.3357H848.538V169.145H818.02V60.3357ZM817.409 22.5771H848.945V46.9375H817.409V22.5771Z" fill="black"/>
<path d="M865.069 145.191L925.291 83.072H867.714V60.3357H961.913V84.29L900.877 146.409H963.337V169.145H865.069V145.191Z" fill="black"/>
<path d="M746.427 207.208V304.987H724.553V207.208H746.427Z" fill="black"/>
<path fill-rule="evenodd" clip-rule="evenodd" d="M423.765 304.987H410.236H401.823V207.208H436.552C442.43 207.208 447.68 207.746 452.302 208.82C456.923 209.895 460.85 211.551 464.08 213.79C467.356 216.028 469.846 218.826 471.551 222.184C473.256 225.542 474.109 229.504 474.109 234.071C474.109 238.055 473.211 241.771 471.416 245.218C469.666 248.666 466.84 251.464 462.936 253.613C462.122 254.061 461.25 254.467 460.32 254.829C462.28 255.327 464.027 256.018 465.561 256.903C469.33 259.008 472.045 261.783 473.705 265.231C475.365 268.678 476.195 272.327 476.195 276.177C476.195 282.534 474.827 287.862 472.089 292.16C469.352 296.413 465.292 299.614 459.907 301.763C454.568 303.912 447.972 304.987 440.12 304.987H423.765ZM445.437 246.763C443.148 247.658 440.164 248.106 436.485 248.106H423.765V224.199H436.552C440.187 224.199 443.148 224.624 445.437 225.475C447.77 226.281 449.475 227.579 450.552 229.37C451.629 231.161 452.167 233.511 452.167 236.421C452.167 238.973 451.629 241.122 450.552 242.868C449.475 244.569 447.77 245.868 445.437 246.763ZM448.331 286.452C446.222 287.526 443.485 288.064 440.12 288.064H423.765V262.746H440.995C444.225 262.746 446.805 263.283 448.735 264.358C450.709 265.432 452.145 266.954 453.042 268.924C453.984 270.894 454.456 273.222 454.456 275.908C454.456 278.192 453.962 280.251 452.975 282.087C451.988 283.922 450.44 285.377 448.331 286.452Z" fill="black"/>
<path fill-rule="evenodd" clip-rule="evenodd" d="M734.537 171.581C723.008 171.581 713.717 168.942 706.663 163.664C699.746 158.386 696.287 151.146 696.287 141.943C696.287 132.469 699.203 125.094 705.036 119.816C710.868 114.537 719.888 110.68 732.095 108.244L767.293 101.342C767.293 94.3049 765.665 89.0268 762.41 85.5081C759.29 81.854 754.679 80.027 748.575 80.027C742.878 80.027 738.402 81.3803 735.147 84.087C731.892 86.6584 729.722 90.5155 728.636 95.6582L698.118 94.2372C700.153 82.3277 705.511 73.3279 714.191 67.2378C722.872 61.0124 734.333 57.8997 748.575 57.8997C764.851 57.8997 777.127 61.7567 785.4 69.4708C793.674 77.1849 797.811 88.4854 797.811 103.372V140.522C797.811 143.499 798.286 145.529 799.235 146.612C800.185 147.695 801.745 148.236 803.915 148.236H806.967V169.145C805.881 169.416 804.254 169.687 802.084 169.957C800.049 170.228 798.015 170.363 795.98 170.363C788.52 170.363 782.552 168.469 778.076 164.679C775.029 162.019 773.051 158.024 772.143 152.695C769.699 157.644 765.912 161.774 760.782 165.085C753.865 169.416 745.116 171.581 734.537 171.581ZM755.086 147.83C751.288 149.725 746.88 150.672 741.861 150.672C737.114 150.672 733.519 149.725 731.078 147.83C728.772 145.8 727.619 142.89 727.619 139.101C727.619 135.582 728.84 132.74 731.281 130.575C733.723 128.274 737.453 126.65 742.471 125.703L767.293 120.425V125.703C767.293 130.845 766.208 135.311 764.038 139.101C762.003 142.89 759.019 145.8 755.086 147.83Z" fill="black"/>
<path d="M588.124 25.0132H618.642V73.3703C620.516 70.078 622.957 67.2895 625.967 65.0048C632.206 60.268 639.801 57.8997 648.754 57.8997C660.554 57.8997 669.642 61.689 676.016 69.2678C682.391 76.7113 685.579 86.6584 685.579 99.1093V169.145H655.061V106.417C655.061 98.1619 653.772 92.0718 651.195 88.1471C648.618 84.087 644.413 82.057 638.581 82.057C632.206 82.057 627.255 84.2224 623.729 88.5531C620.338 92.8838 618.642 99.1093 618.642 107.229V169.145H588.124V25.0132Z" fill="black"/>
<path d="M557.987 169.145C548.764 169.145 541.711 166.845 536.828 162.243C531.945 157.642 529.504 150.469 529.504 140.725V25.0132H560.022V137.477C560.022 140.725 560.768 143.026 562.26 144.379C563.752 145.732 565.922 146.409 568.77 146.409H576.095V169.145H557.987Z" fill="black"/>
<path fill-rule="evenodd" clip-rule="evenodd" d="M448.007 171.581C436.478 171.581 427.187 168.942 420.134 163.664C413.217 158.386 409.758 151.146 409.758 141.943C409.758 132.469 412.674 125.094 418.506 119.816C424.339 114.537 433.359 110.68 445.566 108.244L480.764 101.342C480.764 94.3049 479.136 89.0268 475.881 85.5081C472.761 81.854 468.149 80.027 462.046 80.027C456.349 80.027 451.873 81.3803 448.618 84.087C445.362 86.6584 443.192 90.5155 442.107 95.6582L411.589 94.2372C413.623 82.3277 418.981 73.3279 427.662 67.2378C436.343 61.0124 447.804 57.8997 462.046 57.8997C478.322 57.8997 490.597 61.7567 498.871 69.4708C507.145 77.1849 511.282 88.4854 511.282 103.372V140.522C511.282 143.499 511.756 145.529 512.706 146.612C513.655 147.695 515.215 148.236 517.385 148.236H520.437V169.145C519.352 169.416 517.724 169.687 515.554 169.957C513.52 170.228 511.485 170.363 509.451 170.363C501.991 170.363 496.023 168.469 491.547 164.679C488.499 162.019 486.522 158.024 485.614 152.695C483.169 157.643 479.382 161.774 474.253 165.085C467.336 169.416 458.587 171.581 448.007 171.581ZM468.556 147.83C464.758 149.725 460.35 150.672 455.332 150.672C450.584 150.672 446.99 149.725 444.549 147.83C442.243 145.8 441.09 142.89 441.09 139.101C441.09 135.582 442.311 132.74 444.752 130.575C447.193 128.274 450.924 126.65 455.942 125.703L480.764 120.425V125.703C480.764 130.845 479.678 135.311 477.508 139.101C475.474 142.89 472.49 145.8 468.556 147.83Z" fill="black"/>
<path fill-rule="evenodd" clip-rule="evenodd" d="M512.451 207.208H550.074C557.568 207.208 564.051 208.328 569.525 210.566C575.044 212.805 579.285 216.118 582.246 220.505C585.208 224.893 586.688 230.31 586.688 236.757C586.688 242.129 585.813 246.696 584.063 250.457C582.313 254.217 579.846 257.329 576.66 259.791C574.47 261.508 572.019 262.996 569.307 264.255L590.188 303.979V304.987H566.699L548.806 269.663H534.392V304.987H512.451V207.208ZM558.286 250.927C556.132 252.091 553.417 252.673 550.142 252.673H534.392V224.199H550.074C553.305 224.199 555.997 224.781 558.151 225.945C560.35 227.064 562.01 228.698 563.132 230.847C564.253 232.996 564.814 235.548 564.814 238.503C564.814 241.368 564.253 243.875 563.132 246.024C562.055 248.128 560.439 249.763 558.286 250.927Z" fill="black"/>
<path d="M914.041 304.987H892.099V207.208H914.041V246.562H951.126V207.208H973V304.987H951.126V263.485H914.041V304.987Z" fill="black"/>
<path d="M690.316 207.208V224.199H623.617V207.208H690.316Z" fill="black"/>
<path d="M690.22 246.562V262.947H623.617V246.562H690.22Z" fill="black"/>
<path d="M690.249 304.987V288.064H623.617V304.987H690.249Z" fill="black"/>
<path d="M858.334 288.064V304.987H782.818V293.033L830.699 224.199H782.683V207.208H842.517H850.324H857.593V218.893L810.062 288.064H858.334Z" fill="black"/>
</svg>
